<svg xmlns="http://www.w3.org/2000/svg" viewBox="0 0 62.68 79.11"><g id="Calque_2" data-name="Calque 2"><g id="_118" data-name="118"><path d="M30.28,53.74A26.87,26.87,0,1,1,57.16,26.87,26.9,26.9,0,0,1,30.28,53.74Zm0-52.44A25.57,25.57,0,1,0,55.86,26.87,25.6,25.6,0,0,0,30.28,1.3Z"/><path d="M30.28,53.74c-4.67,0-9-4.38-11.64-11.7a.69.69,0,0,1,0-.51.64.64,0,0,1,.39-.33,2.08,2.08,0,0,0-1.1-4,.67.67,0,0,1-.5-.08.69.69,0,0,1-.29-.42,48.92,48.92,0,0,1-1-9.83A48.76,48.76,0,0,1,17.29,16.5a.61.61,0,0,1,.29-.41.63.63,0,0,1,.5-.08,2.11,2.11,0,0,0,2.56-1.66c0-.12,0-.23,0-.35a2.08,2.08,0,0,0-1.43-2,.64.64,0,0,1-.4-.84C21.5,4.07,25.68,0,30.28,0c4.83,0,9.26,4.6,11.86,12.31.16.49.32,1,.47,1.52h0a47.56,47.56,0,0,1,1.74,13,49.39,49.39,0,0,1-1,9.81.64.64,0,0,1-.28.42.69.69,0,0,1-.49.09,2.41,2.41,0,0,0-.5-.06,2.07,2.07,0,0,0-.61,4,.68.68,0,0,1,.38.33.65.65,0,0,1,0,.51C39.33,49.36,35,53.74,30.28,53.74ZM20.08,42.17c2.43,6.44,6.22,10.27,10.2,10.27s7.79-3.83,10.22-10.28a3.38,3.38,0,0,1,1.75-6.33,49,49,0,0,0,.8-9,46.92,46.92,0,0,0-1.53-12.11,64.62,64.62,0,0,1-11.15,1h0a63.68,63.68,0,0,1-8.59-.58,3.41,3.41,0,0,1-3.33,2.21,48.21,48.21,0,0,0-.92,9.5,47.53,47.53,0,0,0,.82,9,3.37,3.37,0,0,1,1.75,6.32ZM30.35,14.44a62.65,62.65,0,0,0,10.81-.94c-.08-.26-.17-.52-.25-.78C38.5,5.57,34.53,1.3,30.28,1.3c-3.86,0-7.57,3.64-10,9.77A3.37,3.37,0,0,1,22,13.88a64,64,0,0,0,8.39.56Z"/><path d="M56.51,27.52H4.07a.65.65,0,0,1,0-1.3H56.51a.65.65,0,0,1,0,1.3Z"/><path d="M30.28,53.74a.66.66,0,0,1-.65-.65V.65a.65.65,0,0,1,1.3,0V53.09A.65.65,0,0,1,30.28,53.74Z"/><path d="M18.59,17.37A3.37,3.37,0,0,1,15.22,14V14c-2.14-.51-4.29-1.12-6.39-1.83a.65.65,0,1,1,.41-1.23c2.06.69,4.15,1.29,6.24,1.78A3.38,3.38,0,0,1,22,13.88a64.15,64.15,0,0,0,29.36-3,.65.65,0,1,1,.42,1.23,65.32,65.32,0,0,1-30,3A3.38,3.38,0,0,1,18.59,17.37Zm0-5.45a2.08,2.08,0,0,0-2,1.65,2,2,0,0,0,0,.43,2.07,2.07,0,0,0,4.12.33h0a3.08,3.08,0,0,0,0-.33A2.08,2.08,0,0,0,18.59,11.92Z"/><path d="M51.53,42.34a.78.78,0,0,1-.21,0,69.15,69.15,0,0,0-6.67-1.91.65.65,0,1,1,.3-1.26c2.3.54,4.59,1.19,6.79,1.94a.65.65,0,0,1,.41.82A.66.66,0,0,1,51.53,42.34ZM9,42.34a.65.65,0,0,1-.62-.45.64.64,0,0,1,.41-.82c2.28-.77,4.57-1.41,6.8-1.93a.66.66,0,0,1,.78.49.65.65,0,0,1-.49.78c-2.19.5-4.44,1.14-6.68,1.89A.79.79,0,0,1,9,42.34Zm12.09-2.92a.65.65,0,0,1-.1-1.29,64.14,64.14,0,0,1,18.51,0,.65.65,0,0,1-.19,1.28,62.94,62.94,0,0,0-18.13,0Z"/><path d="M42.13,42.58a3.38,3.38,0,1,1,3.33-2.83A3.37,3.37,0,0,1,42.13,42.58Zm0-5.45a2.08,2.08,0,1,0,1.58.73A2.07,2.07,0,0,0,42.13,37.13Z"/><path d="M18.44,42.6a3.38,3.38,0,1,1,0-6.75,3.38,3.38,0,0,1,0,6.75Zm0-5.45a2.08,2.08,0,1,0,1.58.73A2,2,0,0,0,18.44,37.15Z"/><path d="M30.28,79.11a5.41,5.41,0,1,1,5.41-5.4A5.41,5.41,0,0,1,30.28,79.11Zm0-9.51a4.11,4.11,0,1,0,4.11,4.11A4.12,4.12,0,0,0,30.28,69.6Z"/><path d="M62,74.36H36.3a.65.65,0,0,1,0-1.3H62a.65.65,0,1,1,0,1.3Zm-35.65,0H.65a.65.65,0,0,1,0-1.3H26.38a.65.65,0,1,1,0,1.3Z"/><path d="M30.28,69.6a.66.66,0,0,1-.65-.65V48.82a.66.66,0,0,1,.65-.65.66.66,0,0,1,.65.65V69A.65.65,0,0,1,30.28,69.6Z"/></g></g></svg>