<?xml-stylesheet type="text/css" href="custom.scss" ?>
<svg xmlns="http://www.w3.org/2000/svg" viewBox="0 0 73.2 79.11">
<g id="Calque_2" data-name="Calque 2"><g id="_118" data-name="118"><path class="cls-1" d="M70.48,65.9c2,3.26,2.63,6.07,1.51,8-3.11,5.36-18.28,2.52-35.39-6.17,2.06-1,4.17-2.17,6.27-3.39a118.89,118.89,0,0,0,15.92-10.9l.14.18a65.42,65.42,0,0,1,9.24,9,2,2,0,0,0,1.21,3.56A2.06,2.06,0,0,0,70.48,65.9Z"/><path class="cls-1" d="M69.38,62.26a2,2,0,0,1,1.1,3.64,2.06,2.06,0,0,1-1.1.33,2,2,0,0,1-1.21-3.56A2.05,2.05,0,0,1,69.38,62.26Z"/><path class="cls-1" d="M68.08,30.36a2.28,2.28,0,0,1,0,.26,2,2,0,0,1-4-.26v0a2,2,0,0,1,4,0Z"/><path class="cls-1" d="M51.7,22.34a14.43,14.43,0,0,1-6.24,11.89v2.61H29V34.23A14.46,14.46,0,1,1,51.7,22.34Zm-13.34-.73,1.47-.19a2.5,2.5,0,0,0-.7-1.39,2.57,2.57,0,0,0-1.47-.62v-.56h-.84v.56a2.38,2.38,0,0,0-1.57.74,2.26,2.26,0,0,0-.59,1.59,2.45,2.45,0,0,0,.52,1.59,3.1,3.1,0,0,0,1.64,1v2.41a1.54,1.54,0,0,1-.55-.48,2,2,0,0,1-.36-.8l-1.5.19a3.11,3.11,0,0,0,.8,1.73,2.63,2.63,0,0,0,1.61.74v1.06h.84V28.07a2.76,2.76,0,0,0,1.76-.88,2.52,2.52,0,0,0,.65-1.76,2.37,2.37,0,0,0-.51-1.53,3.79,3.79,0,0,0-1.9-1V20.69A1.16,1.16,0,0,1,38.36,21.61Z"/><polygon class="cls-1" points="45.46 42.62 45.46 45.27 42.6 45.27 31.88 45.27 29.02 45.27 29.02 43.43 29.02 42.62 45.46 42.62"/><rect class="cls-1" x="29.02" y="39.85" width="16.44" height="2.77"/><rect class="cls-1" x="29.02" y="36.84" width="16.44" height="3.01"/><polygon class="cls-1" points="42.6 45.27 42.6 50.13 38.97 50.13 35.52 50.13 31.88 50.13 31.88 45.27 42.6 45.27"/><path class="cls-2" d="M39.83,21.42l-1.47.19a1.16,1.16,0,0,0-.7-.92v2.25a3.79,3.79,0,0,1,1.9,1,2.37,2.37,0,0,1,.51,1.53,2.52,2.52,0,0,1-.65,1.76,2.76,2.76,0,0,1-1.76.88v1.08h-.84V28.09a2.63,2.63,0,0,1-1.61-.74,3.11,3.11,0,0,1-.8-1.73l1.5-.19a2,2,0,0,0,.36.8,1.54,1.54,0,0,0,.55.48V24.3a3.1,3.1,0,0,1-1.64-1,2.45,2.45,0,0,1-.52-1.59,2.26,2.26,0,0,1,.59-1.59,2.38,2.38,0,0,1,1.57-.74v-.56h.84v.56a2.57,2.57,0,0,1,1.47.62A2.5,2.5,0,0,1,39.83,21.42Zm-1.19,4.22a1,1,0,0,0-.22-.66,1.5,1.5,0,0,0-.76-.43v2.26a1.33,1.33,0,0,0,.71-.41A1.16,1.16,0,0,0,38.64,25.64Zm-1.82-3v-2a1,1,0,0,0-.52.39,1,1,0,0,0-.2.61,1,1,0,0,0,.17.57A1.34,1.34,0,0,0,36.82,22.66Z"/><rect class="cls-1" x="35.52" y="50.13" width="3.45" height="4.22"/><path class="cls-1" d="M38.42,25a1,1,0,0,1,.22.66,1.16,1.16,0,0,1-.27.76,1.33,1.33,0,0,1-.71.41V24.55A1.5,1.5,0,0,1,38.42,25Z"/><path class="cls-1" d="M36.82,20.67v2a1.34,1.34,0,0,1-.55-.42,1,1,0,0,1-.17-.57,1,1,0,0,1,.2-.61A1,1,0,0,1,36.82,20.67Z"/><path class="cls-1" d="M29,36.84v6.59h-.1a119.92,119.92,0,0,0-14.47,10h0C4.32,45.21-1.2,37.21,1.21,33c1.48-2.58,5.77-3.25,11.73-2.3a2.22,2.22,0,0,0,0,.37,2,2,0,0,0,3.92.43,81.51,81.51,0,0,1,11.92,4H29Z"/><path class="cls-1" d="M12.94,30.74a2,2,0,0,1,3.94.37,2,2,0,0,1-.05.43,2,2,0,0,1-3.92-.43A2.22,2.22,0,0,1,12.94,30.74Z"/><path class="cls-1" d="M7.91,76.47a.76.76,0,0,1,0,.15A2,2,0,0,1,4,76.47,2.3,2.3,0,0,1,4,76a2,2,0,0,1,3.91.45Z"/><path class="cls-1" d="M31.88,45.27H29v-11a14.46,14.46,0,1,1,16.44,0v11H42.6"/><path class="cls-1" d="M4,76a4.93,4.93,0,0,1-2.78-2.11C-1.2,69.76,4.33,61.77,14.44,53.48h0a119.92,119.92,0,0,1,14.47-10"/><path class="cls-1" d="M68.07,30.62A5.6,5.6,0,0,1,72,33c2.4,4.16-3.11,12.15-13.2,20.41a118.89,118.89,0,0,1-15.92,10.9c-2.1,1.22-4.21,2.35-6.27,3.39-11.44,5.81-22,9-28.69,8.88"/><path class="cls-1" d="M45.61,35.09c7.23-2.91,13.7-4.57,18.5-4.75"/><path class="cls-1" d="M68.17,62.67a65.42,65.42,0,0,0-9.24-9"/><path class="cls-1" d="M12.94,30.74C7,29.79,2.69,30.46,1.21,33-1.2,37.21,4.32,45.21,14.44,53.48A119.59,119.59,0,0,0,30.32,64.35c2.11,1.22,4.21,2.35,6.28,3.39C53.71,76.43,68.88,79.27,72,73.91c1.12-1.94.5-4.75-1.51-8"/><path class="cls-1" d="M28.75,35.58a81.51,81.51,0,0,0-11.92-4"/><line class="cls-1" x1="36.35" y1="0.65" x2="36.35" y2="5.54"/><line class="cls-1" x1="43.49" y1="1.37" x2="42.23" y2="6.11"/><line class="cls-1" x1="50.19" y1="3.92" x2="47.76" y2="8.17"/><line class="cls-1" x1="22.74" y1="4.73" x2="25.19" y2="8.97"/><line class="cls-1" x1="29.29" y1="1.8" x2="30.54" y2="6.53"/><path class="cls-1" d="M30.76,28.21l-3,1.16L27,28l2.48-2A7.69,7.69,0,0,1,29,24.27l-3.15-.46V22.17L29,21.69A7.84,7.84,0,0,1,29.47,20L27,18l.81-1.42,3,1.16A8.08,8.08,0,0,1,32,16.52l-1.16-3,1.41-.82,2,2.48A9.44,9.44,0,0,1,36,14.75l.46-3.14h1.64l.47,3.14a8.79,8.79,0,0,1,1.71.46l2-2.48,1.41.82-1.16,3a7.6,7.6,0,0,1,1.24,1.23l3-1.16L47.49,18,45,20a8.45,8.45,0,0,1,.45,1.71l3.15.48V23.8l-3.15.47A8.28,8.28,0,0,1,45,26l2.48,2-.81,1.41-3-1.16"/><polyline class="cls-1" points="26.9 36.84 29.02 36.84 45.46 36.84 47.58 36.84"/><polyline class="cls-1" points="26.9 39.85 29.02 39.85 45.46 39.85 47.58 39.85"/><polyline class="cls-1" points="26.9 42.62 29.02 42.62 45.46 42.62 47.58 42.62"/><polyline class="cls-1" points="35.52 50.13 31.88 50.13 31.88 45.27 42.6 45.27 42.6 50.13 38.97 50.13"/><rect class="cls-1" x="35.52" y="50.13" width="3.45" height="4.22"/><path class="cls-1" d="M12.94,30.74a2,2,0,0,1,3.94.37,2,2,0,0,1-.05.43,2,2,0,0,1-3.92-.43A2.22,2.22,0,0,1,12.94,30.74Z"/><path class="cls-1" d="M68.17,62.67a2.05,2.05,0,0,1,1.21-.41,2,2,0,0,1,1.1,3.64,2.06,2.06,0,0,1-1.1.33,2,2,0,0,1-1.21-3.56Z"/><path class="cls-1" d="M4,76a2,2,0,0,1,3.91.45.76.76,0,0,1,0,.15A2,2,0,0,1,4,76.47,2.3,2.3,0,0,1,4,76Z"/><path class="cls-1" d="M64.11,30.34a2,2,0,0,1,4,0,2.28,2.28,0,0,1,0,.26,2,2,0,0,1-4-.26Z"/></g></g></svg>