<svg xmlns="http://www.w3.org/2000/svg" viewBox="0 0 79.11 77.92"><defs><style>.cls-1{fill:none;}</style></defs><g id="Calque_2" data-name="Calque 2"><g id="_118" data-name="118"><path d="M76.51,77.92H2.45a.65.65,0,0,1-.56-.32A13.11,13.11,0,0,1,0,70.79,13.9,13.9,0,0,1,.2,68.5a13.25,13.25,0,0,1,18-10,10.15,10.15,0,0,1,18.64-1.61,10.13,10.13,0,0,1,13.45.57,17,17,0,0,1,26.83,20.1A.67.67,0,0,1,76.51,77.92ZM2.82,76.62h73.3A15.64,15.64,0,0,0,50.74,58.86a.66.66,0,0,1-.48.2h0a.67.67,0,0,1-.48-.21A8.85,8.85,0,0,0,37,58.44a.62.62,0,0,1-.58.17.63.63,0,0,1-.47-.38,8.84,8.84,0,0,0-16.76,1.34.7.7,0,0,1-.35.44.68.68,0,0,1-.56,0A11.93,11.93,0,0,0,1.48,68.72a12.32,12.32,0,0,0-.18,2.07A11.85,11.85,0,0,0,2.82,76.62Z"/><path d="M56,69.25H.84a.65.65,0,1,1,0-1.3H56a.65.65,0,0,1,0,1.3Z"/><path d="M48,48a37.9,37.9,0,0,1-7.38-.79.66.66,0,0,1-.52-.51c-1.84-9.22-.43-16.47,4.08-21,3.22-3.22,7.79-4.85,13.59-4.85a38,38,0,0,1,7.38.78.64.64,0,0,1,.51.51c1.83,9.22.42,16.47-4.07,21C58.39,46.39,53.82,48,48,48Zm-6.7-2a36,36,0,0,0,6.7.68c5.43,0,9.69-1.51,12.67-4.48,4.1-4.11,5.41-10.8,3.8-19.37a36.11,36.11,0,0,0-6.7-.67c-5.44,0-9.7,1.5-12.67,4.47C41,30.79,39.7,37.48,41.33,46.05Z"/><path d="M34,48.19h0c-4,0-7.21-1.14-9.45-3.39-3.14-3.13-4.12-8.16-2.85-14.54a.64.64,0,0,1,.51-.51,26.11,26.11,0,0,1,5.09-.54c4,0,7.2,1.14,9.45,3.38,3.14,3.13,4.13,8.17,2.86,14.55a.69.69,0,0,1-.52.52A26.77,26.77,0,0,1,34,48.19ZM22.91,30.94c-1.06,5.73-.17,10.2,2.58,12.94,2,2,4.86,3,8.53,3h0a24.16,24.16,0,0,0,4.41-.43c1.06-5.73.17-10.21-2.58-13S28.63,29.89,22.91,30.94Z"/><path d="M40.77,47.25a.66.66,0,0,1-.45-.18.65.65,0,0,1,0-.92l16.27-17a.66.66,0,0,1,.92,0,.64.64,0,0,1,0,.91l-16.27,17A.63.63,0,0,1,40.77,47.25Z"/><path d="M39.71,56.2a.65.65,0,0,1-.65-.65V18.14a.65.65,0,1,1,1.3,0V55.55A.65.65,0,0,1,39.71,56.2Z"/><path d="M50.84,36.75a.64.64,0,0,1-.64-.6l-.76-9.28a.64.64,0,0,1,.59-.7.64.64,0,0,1,.7.59l.76,9.29a.65.65,0,0,1-.59.7Z"/><path d="M44.62,43.25A.65.65,0,0,1,44,42.7a.65.65,0,0,1,.54-.74l10-1.58a.65.65,0,1,1,.21,1.28l-10,1.58Z"/><path d="M39,47.67a.67.67,0,0,1-.47-.2L27.29,35.77a.65.65,0,1,1,.94-.9l11.23,11.7a.65.65,0,0,1-.47,1.1Z"/><path d="M26.53,40.92a.66.66,0,0,1-.61-.42.65.65,0,0,1,.38-.84l4.14-1.57a.65.65,0,1,1,.46,1.22l-4.14,1.57A.66.66,0,0,1,26.53,40.92Z"/><path d="M35.27,43.79h0a.65.65,0,0,1-.61-.69l.4-6.22a.65.65,0,0,1,1.3.09l-.4,6.21A.65.65,0,0,1,35.27,43.79Z"/><path d="M39.71,18.79A9.4,9.4,0,1,1,49.1,9.4,9.4,9.4,0,0,1,39.71,18.79Zm0-17.49A8.1,8.1,0,1,0,47.8,9.4,8.1,8.1,0,0,0,39.71,1.3Z"/><path class="cls-1" d="M40.22,12.8a1.45,1.45,0,0,0,.86-.5,1.3,1.3,0,0,0,.33-.92,1.2,1.2,0,0,0-.28-.8,1.75,1.75,0,0,0-.91-.52Zm-1-7.45a1.37,1.37,0,0,0-.65.48,1.33,1.33,0,0,0-.23.75,1.21,1.21,0,0,0,.21.68,1.54,1.54,0,0,0,.67.51Zm0,7.34V9.76a3.94,3.94,0,0,1-2-1.18,3.05,3.05,0,0,1-.63-1.92,2.73,2.73,0,0,1,.72-1.93,2.89,2.89,0,0,1,1.91-.89V3.15h1v.69A3,3,0,0,1,42,4.6a2.87,2.87,0,0,1,.84,1.67l-1.77.23a1.41,1.41,0,0,0-.85-1.11V8.11a4.49,4.49,0,0,1,2.3,1.17,2.85,2.85,0,0,1,.61,1.86,3.07,3.07,0,0,1-.77,2.13,3.41,3.41,0,0,1-2.14,1.07v1.31h-1V14.36a3.25,3.25,0,0,1-2-.89,3.71,3.71,0,0,1-1-2.12l1.82-.21a2.47,2.47,0,0,0,.42,1A2.17,2.17,0,0,0,39.2,12.69Z"/><path d="M15.28,23.54a3,3,0,1,1,3-3A3,3,0,0,1,15.28,23.54Zm0-4.69A1.7,1.7,0,1,0,17,20.54,1.69,1.69,0,0,0,15.28,18.85Z"/><path d="M63.25,13.61a3,3,0,1,1,3-3A3,3,0,0,1,63.25,13.61Zm0-4.68a1.69,1.69,0,1,0,0,3.38,1.69,1.69,0,1,0,0-3.38Z"/></g></g></svg>