<svg xmlns="http://www.w3.org/2000/svg" viewBox="0 0 77.09 79.11"><defs><style>.cls-1{fill:none;}</style></defs><g id="Calque_2" data-name="Calque 2"><g id="_118" data-name="118"><path d="M59.42,70.82H17.66a.65.65,0,0,1-.36-.1,38.55,38.55,0,1,1,42.48,0A.65.65,0,0,1,59.42,70.82Zm-41.57-1.3H59.23a37.24,37.24,0,1,0-41.38,0Z"/><path d="M61.87,64.49H15.22a.66.66,0,0,1-.65-.66V46.69a.63.63,0,0,1,.41-.6l16-6.31a.66.66,0,0,1,.69.14l6.58,6.34,7.1-6.36a.66.66,0,0,1,.67-.12l16,6.3a.65.65,0,0,1,.41.61V63.83A.66.66,0,0,1,61.87,64.49Zm-46-1.31H61.22v-16L46,41.14l-7.25,6.49a.64.64,0,0,1-.88,0L31.1,41.14l-15.23,6Z"/><path d="M54,64.46H23.09a.65.65,0,0,1-.65-.65V53.05a.65.65,0,1,1,1.3,0V63.16H53.35V53.05a.65.65,0,0,1,1.3,0V63.81A.65.65,0,0,1,54,64.46Z"/><path d="M46.25,49.27H30.83a.65.65,0,0,1-.65-.65V40.39a.65.65,0,0,1,1.3,0V48H45.6V40.39a.65.65,0,0,1,1.3,0v8.23A.65.65,0,0,1,46.25,49.27Z"/><path d="M40.86,54.64H36.22a.65.65,0,0,1-.65-.65V48.62a.65.65,0,0,1,.65-.65h4.64a.65.65,0,0,1,.65.65V54A.65.65,0,0,1,40.86,54.64Zm-4-1.3h3.34V49.27H36.87Z"/><path d="M42.75,64.49H33.86a.66.66,0,0,1-.51-.25.63.63,0,0,1-.12-.56l2.36-9.84a.65.65,0,0,1,.63-.5h4.64a.66.66,0,0,1,.64.53l1.89,9.84a.63.63,0,0,1-.14.54A.65.65,0,0,1,42.75,64.49Zm-8.07-1.31H42l-1.64-8.54H36.73Z"/><path d="M38.75,37A12.21,12.21,0,1,1,51,24.82,12.24,12.24,0,0,1,38.75,37Zm0-23.12a10.91,10.91,0,1,0,10.91,10.9A10.91,10.91,0,0,0,38.75,13.92Z"/><path d="M47.52,22.82a13.25,13.25,0,0,1-8-2.5.65.65,0,1,1,.79-1,12.59,12.59,0,0,0,9.5,2,.68.68,0,0,1,.76.53.65.65,0,0,1-.53.75A14.56,14.56,0,0,1,47.52,22.82Z"/><path d="M32.66,22.6a14.33,14.33,0,0,1-5.08-.9A.65.65,0,0,1,28,20.48a13.14,13.14,0,0,0,4.62.82c5.33,0,9.68-3,9.68-6.73a.65.65,0,1,1,1.3,0C43.64,19,38.71,22.6,32.66,22.6Z"/><path d="M73.07,75.29H4A.65.65,0,0,1,4,74H73.07a.65.65,0,0,1,0,1.3Z"/><path d="M73.07,79.11H4a.65.65,0,0,1,0-1.3H73.07a.65.65,0,0,1,0,1.3Z"/><path class="cls-1" d="M63.24,20.33H61.81l0,14.57a.72.72,0,0,0,.72.72h1.4l-3.49,2.8-3.48-2.8h1.4a.73.73,0,0,0,.73-.73V24.07H57.62V34.18H54.89a.73.73,0,0,0-.45,1.29L60,39.91a.74.74,0,0,0,.92,0l5.49-4.42a.73.73,0,0,0,.31-.6.72.72,0,0,0-.72-.72H63.22ZM19.48,40.08H18l0-14.57a.72.72,0,0,1,.72-.72h1.41L16.66,22l-3.49,2.8h1.41a.73.73,0,0,1,.72.73V36.34H13.86V26.23H11.13a.73.73,0,0,1-.57-.28.73.73,0,0,1,.11-1l5.52-4.44a.72.72,0,0,1,.92,0l5.5,4.42a.72.72,0,0,1,.3.6.71.71,0,0,1-.71.72H19.46Z"/></g></g></svg>