<svg xmlns="http://www.w3.org/2000/svg" viewBox="0 0 63.59 79.11"><g id="Calque_2" data-name="Calque 2"><g id="_118" data-name="118"><path d="M48.22,36.93H15.37a.65.65,0,0,1-.65-.65V24.2a.65.65,0,0,1,.41-.61l11.29-4.43a.63.63,0,0,1,.68.13l4.52,4.34,4.87-4.35a.61.61,0,0,1,.67-.12l11.3,4.43a.65.65,0,0,1,.41.61V36.28A.65.65,0,0,1,48.22,36.93ZM16,35.63H47.57v-11L37.06,20.51,32,25a.65.65,0,0,1-.88,0L26.5,20.52,16,24.64Z"/><path d="M42.69,36.91H20.9a.66.66,0,0,1-.65-.65V28.68a.65.65,0,1,1,1.3,0v6.93H42V28.68a.65.65,0,1,1,1.3,0v7.58A.66.66,0,0,1,42.69,36.91Z"/><path d="M37.23,26.21H26.36a.65.65,0,0,1-.65-.65v-5.8a.65.65,0,0,1,1.3,0v5.15h9.57V19.76a.65.65,0,1,1,1.3,0v5.8A.65.65,0,0,1,37.23,26.21Z"/><path d="M33.43,30H30.16a.65.65,0,0,1-.65-.65V25.56a.65.65,0,0,1,.65-.65h3.27a.65.65,0,0,1,.65.65v3.78A.65.65,0,0,1,33.43,30Zm-2.62-1.3h2V26.21h-2Z"/><path d="M34.76,36.93H28.49a.63.63,0,0,1-.51-.25.64.64,0,0,1-.13-.55l1.68-6.94a.65.65,0,0,1,.63-.5h3.27a.65.65,0,0,1,.64.53l1.33,6.94a.6.6,0,0,1-.14.53A.64.64,0,0,1,34.76,36.93Zm-5.45-1.3H34L32.89,30H30.67Z"/><path d="M31.94,17.59a8.8,8.8,0,1,1,8.8-8.8A8.81,8.81,0,0,1,31.94,17.59Zm0-16.29a7.5,7.5,0,1,0,7.5,7.49A7.5,7.5,0,0,0,31.94,1.3Z"/><path d="M38.12,7.58a9.45,9.45,0,0,1-5.74-1.81.65.65,0,0,1-.12-.91.64.64,0,0,1,.91-.12,8.73,8.73,0,0,0,6.56,1.4.65.65,0,0,1,.75.53.65.65,0,0,1-.53.75A11.21,11.21,0,0,1,38.12,7.58Z"/><path d="M27.65,7.42A10.15,10.15,0,0,1,24,6.77a.65.65,0,0,1,.47-1.22,8.68,8.68,0,0,0,3.18.57c3.65,0,6.62-2,6.62-4.55a.65.65,0,0,1,1.3,0C35.57,4.8,32,7.42,27.65,7.42Z"/><path d="M62.94,79.11a.65.65,0,0,1-.65-.65v-3A4.31,4.31,0,0,0,58,71.11H50.82a4.31,4.31,0,0,0-4.31,4.31v3a.65.65,0,0,1-1.3,0v-3a5.62,5.62,0,0,1,5.61-5.61H58a5.62,5.62,0,0,1,5.61,5.61v3A.65.65,0,0,1,62.94,79.11Zm-23.48,0a.65.65,0,0,1-.65-.65v-3a4.31,4.31,0,0,0-4.31-4.31H27.34A4.32,4.32,0,0,0,23,75.42v3a.65.65,0,1,1-1.3,0v-3a5.62,5.62,0,0,1,5.61-5.61H34.5a5.61,5.61,0,0,1,5.61,5.61v3A.65.65,0,0,1,39.46,79.11Zm-21.73,0a.65.65,0,0,1-.65-.65v-3a4.32,4.32,0,0,0-4.31-4.31H5.61A4.31,4.31,0,0,0,1.3,75.42v3a.65.65,0,0,1-1.3,0v-3a5.62,5.62,0,0,1,5.61-5.61h7.16a5.62,5.62,0,0,1,5.61,5.61v3A.65.65,0,0,1,17.73,79.11ZM54.27,68.94a5.31,5.31,0,1,1,5.31-5.31A5.32,5.32,0,0,1,54.27,68.94Zm-4-5a4,4,0,0,0,8-.33,3.4,3.4,0,0,0,0-.45A5.45,5.45,0,0,1,55,62.4,5.35,5.35,0,0,1,50.28,64Zm.11-1.3a3.74,3.74,0,0,0,.75.08,4,4,0,0,0,3.22-1.61.67.67,0,0,1,.44-.26.68.68,0,0,1,.49.15,4.14,4.14,0,0,0,2.59.88,4,4,0,0,0-7.49.76ZM30.8,68.94a5.31,5.31,0,1,1,5.3-5.31A5.32,5.32,0,0,1,30.8,68.94Zm-4-5a4,4,0,0,0,8-.33c0-.15,0-.3,0-.45a5.47,5.47,0,0,1-3.27-.78A5.45,5.45,0,0,1,26.8,64Zm.11-1.3a3.87,3.87,0,0,0,.77.08,4,4,0,0,0,3.2-1.61.62.62,0,0,1,.44-.25.63.63,0,0,1,.49.14,4.09,4.09,0,0,0,2.6.88,4,4,0,0,0-7.5.76ZM9.06,68.94a5.31,5.31,0,1,1,5.31-5.31A5.33,5.33,0,0,1,9.06,68.94Zm-4-5a4,4,0,0,0,8-.33,3.4,3.4,0,0,0,0-.45,5.41,5.41,0,0,1-3.27-.78A5.27,5.27,0,0,1,5.94,64,4.94,4.94,0,0,1,5.07,64Zm.1-1.3a3.94,3.94,0,0,0,4-1.53.66.66,0,0,1,.44-.25.62.62,0,0,1,.49.13,4,4,0,0,0,2.6.89,4,4,0,0,0-7.5.76Z"/><path d="M54.56,57.09a.65.65,0,0,1-.65-.65V47.5L9.68,47v9.22a.65.65,0,1,1-1.3,0V46.35a.66.66,0,0,1,.19-.46A.75.75,0,0,1,9,45.7l45.53.51a.64.64,0,0,1,.64.65v9.58A.65.65,0,0,1,54.56,57.09Z"/><path d="M31.62,52a.65.65,0,0,1-.65-.65V36.28a.65.65,0,0,1,1.3,0V51.39A.65.65,0,0,1,31.62,52Z"/></g></g></svg>