<svg xmlns="http://www.w3.org/2000/svg" viewBox="0 0 74.84 79.11"><defs><style>.cls-1{fill:none;}</style></defs><g id="Calque_2" data-name="Calque 2"><g id="_118" data-name="118"><path d="M39.43,63.76A22.44,22.44,0,1,1,61.86,41.32,22.47,22.47,0,0,1,39.43,63.76Zm0-43.57A21.14,21.14,0,1,0,60.56,41.32,21.16,21.16,0,0,0,39.43,20.19Z"/><path d="M23.69,26.9a.64.64,0,0,1-.48-.21L10.62,12.78a.66.66,0,0,1,0-.92.65.65,0,0,1,.92.05L24.17,25.82a.64.64,0,0,1-.48,1.08Z"/><path d="M57.54,31.2a.65.65,0,0,1-.42-1.15L69.37,19.71a.65.65,0,1,1,.84,1L58,31.05A.66.66,0,0,1,57.54,31.2Z"/><path d="M68.24,63.84a.66.66,0,0,1-.44-.17L57.17,53.81a.65.65,0,0,1,0-.92.66.66,0,0,1,.92,0l10.63,9.85a.65.65,0,0,1-.44,1.13Z"/><path d="M55.43,74.36a.64.64,0,0,1-.59-.37L48.76,61a.64.64,0,0,1,.31-.86.65.65,0,0,1,.86.31l6.09,13a.65.65,0,0,1-.31.86A.71.71,0,0,1,55.43,74.36Z"/><path d="M5.08,73.34a.66.66,0,0,1-.51-.25.65.65,0,0,1,.1-.91L24.05,56.64a.65.65,0,1,1,.82,1L5.48,73.19A.62.62,0,0,1,5.08,73.34Z"/><path d="M39.55,20.19h0a.65.65,0,0,1-.64-.66l.16-14.35a.66.66,0,0,1,.66-.64h0a.66.66,0,0,1,.65.66L40.2,19.54A.66.66,0,0,1,39.55,20.19Z"/><path d="M39.78,6.29a3.15,3.15,0,1,1,3.15-3.15A3.15,3.15,0,0,1,39.78,6.29Zm0-5a1.85,1.85,0,1,0,1.85,1.84A1.85,1.85,0,0,0,39.78,1.3Z"/><path d="M71.69,21.74a3.14,3.14,0,1,1,3.15-3.14A3.15,3.15,0,0,1,71.69,21.74Zm0-5a1.84,1.84,0,1,0,1.85,1.84A1.84,1.84,0,0,0,71.69,16.76Z"/><path d="M9.42,13.64a3.14,3.14,0,1,1,3.15-3.14A3.14,3.14,0,0,1,9.42,13.64Zm0-5a1.84,1.84,0,1,0,1.85,1.84A1.83,1.83,0,0,0,9.42,8.66Z"/><path d="M3.14,77.39a3.14,3.14,0,1,1,3.14-3.14A3.15,3.15,0,0,1,3.14,77.39Zm0-5A1.84,1.84,0,1,0,5,74.25,1.84,1.84,0,0,0,3.14,72.41Z"/><path d="M56.5,79.11A3.14,3.14,0,1,1,59.63,76,3.15,3.15,0,0,1,56.5,79.11Zm0-5A1.84,1.84,0,1,0,58.33,76,1.85,1.85,0,0,0,56.5,74.13Z"/><path d="M70.06,68a3.15,3.15,0,1,1,3.15-3.14A3.14,3.14,0,0,1,70.06,68Zm0-5a1.84,1.84,0,1,0,1.85,1.84A1.83,1.83,0,0,0,70.06,63Z"/><path d="M39.43,56.69A15.37,15.37,0,1,1,54.8,41.32,15.39,15.39,0,0,1,39.43,56.69Zm0-29.44A14.07,14.07,0,1,0,53.5,41.32,14.09,14.09,0,0,0,39.43,27.25Z"/><path class="cls-1" d="M40,47a2.62,2.62,0,0,0,1.72-.9,2.79,2.79,0,0,0,.68-1.91,2.46,2.46,0,0,0-.48-1.56,3.7,3.7,0,0,0-1.92-1ZM39,34.66a2.65,2.65,0,0,0-1.63.84,2.49,2.49,0,0,0-.09,3.13,3.22,3.22,0,0,0,1.72.93Zm0,15.65V48.53a6.62,6.62,0,0,1-2.17-.61,3.67,3.67,0,0,1-1.44-1.39,5.17,5.17,0,0,1-.72-2.36l1.79-.34A4.57,4.57,0,0,0,37.15,46,2.62,2.62,0,0,0,39,47v-5.6a10,10,0,0,1-2.25-.93,3.39,3.39,0,0,1-1.31-1.32,4,4,0,0,1-.46-1.92,3.93,3.93,0,0,1,1.35-3.09,4.77,4.77,0,0,1,2.67-1v-.85H40v.85a4.41,4.41,0,0,1,2.46.92,4.11,4.11,0,0,1,1.4,2.68L42,37.06a3.06,3.06,0,0,0-.66-1.62A2.47,2.47,0,0,0,40,34.68v5.15a18.26,18.26,0,0,1,1.78.53,4.6,4.6,0,0,1,1.36.9,3.62,3.62,0,0,1,.8,1.25,4.06,4.06,0,0,1,.29,1.57A4.29,4.29,0,0,1,40,48.5v1.81Z"/></g></g></svg>